<svg xmlns="http://www.w3.org/2000/svg" viewBox="0 0 256 256">
  <defs>
    <linearGradient id="grad1" x1="0%" y1="0%" x2="100%" y2="100%">
      <stop offset="0%" style="stop-color:#8B5CF6;stop-opacity:1" />
      <stop offset="100%" style="stop-color:#3B82F6;stop-opacity:1" />
    </linearGradient>
  </defs>
  <path d="M128 40 C100 40 80 55 70 75 C60 65 45 60 35 70 C25 80 28 95 35 105 C25 115 20 130 28 145 C20 155 22 170 35 180 C30 195 40 210 55 215 C55 225 65 235 80 235 C90 240 105 238 115 230 C125 238 140 240 155 235 C165 240 180 235 188 225 C200 228 215 220 220 205 C230 200 235 185 230 170 C238 160 238 145 230 132 C238 120 235 105 225 95 C230 80 220 65 205 60 C205 48 190 40 175 40 C165 35 150 38 140 45 C135 40 130 40 128 40 Z" fill="url(#grad1)"/>
  <circle cx="85" cy="95" r="6" fill="#E0E7FF" opacity="0.9"/>
  <circle cx="128" cy="85" r="6" fill="#E0E7FF" opacity="0.9"/>
  <circle cx="170" cy="100" r="6" fill="#E0E7FF" opacity="0.9"/>
  <circle cx="105" cy="140" r="6" fill="#E0E7FF" opacity="0.9"/>
  <circle cx="155" cy="145" r="6" fill="#E0E7FF" opacity="0.9"/>
  <circle cx="128" cy="175" r="6" fill="#E0E7FF" opacity="0.9"/>
  <line x1="85" y1="95" x2="128" y2="85" stroke="#E0E7FF" stroke-width="2" opacity="0.6"/>
  <line x1="128" y1="85" x2="170" y2="100" stroke="#E0E7FF" stroke-width="2" opacity="0.6"/>
  <line x1="85" y1="95" x2="105" y2="140" stroke="#E0E7FF" stroke-width="2" opacity="0.6"/>
  <line x1="170" y1="100" x2="155" y2="145" stroke="#E0E7FF" stroke-width="2" opacity="0.6"/>
  <line x1="105" y1="140" x2="128" y2="175" stroke="#E0E7FF" stroke-width="2" opacity="0.6"/>
  <line x1="155" y1="145" x2="128" y2="175" stroke="#E0E7FF" stroke-width="2" opacity="0.6"/>
  <line x1="128" y1="85" x2="105" y2="140" stroke="#E0E7FF" stroke-width="2" opacity="0.4"/>
  <line x1="128" y1="85" x2="155" y2="145" stroke="#E0E7FF" stroke-width="2" opacity="0.4"/>
</svg>